<svg aria-hidden="true" style="width:0;height:0;position:absolute;overflow:hidden" xmlns="http://www.w3.org/2000/svg"><defs><symbol id="icon-marks" viewBox="0 0 40 32"><path fill="#fff" style="fill:var(--color1,#fff)" d="M11.026 18.286c2.051 0 3.675.642 4.872 1.925 1.282 1.203 1.923 2.807 1.923 4.812 0 2.165-.769 3.89-2.308 5.173-1.453 1.203-3.462 1.805-6.026 1.805-2.991 0-5.342-1.083-7.051-3.248C.812 26.588 0 23.5 0 19.49c0-3.609.855-6.937 2.564-9.985C4.273 6.377 6.838 3.249 10.256.122c.085-.08.214-.12.385-.12.256 0 .47.12.641.361s.171.441 0 .602C7.094 4.975 5 9.707 5 15.16c0 2.246.427 3.89 1.282 4.932.769-1.203 2.35-1.805 4.744-1.805zm22.179 0c2.051 0 3.675.642 4.872 1.925C39.359 21.414 40 23.018 40 25.023c0 2.165-.769 3.89-2.308 5.173-1.453 1.203-3.462 1.805-6.026 1.805-2.991 0-5.342-1.083-7.051-3.248-1.624-2.165-2.436-5.253-2.436-9.263 0-3.609.855-6.937 2.564-9.985 1.709-3.128 4.273-6.256 7.692-9.383.085-.08.214-.12.385-.12.256 0 .47.12.641.361s.171.441 0 .602c-4.188 4.01-6.282 8.742-6.282 14.195 0 2.246.427 3.89 1.282 4.932.769-1.203 2.35-1.805 4.744-1.805z"/></symbol><symbol id="icon-instagram" viewBox="0 0 32 32"><path fill="none" stroke="#fff" style="stroke:var(--color1,#fff)" stroke-miterlimit="10" stroke-width="2.462" d="M22.811 1.231H9.189a7.957 7.957 0 0 0-7.958 7.958v13.622a7.958 7.958 0 0 0 7.959 7.958h13.621a7.96 7.96 0 0 0 7.959-7.959V9.188a7.958 7.958 0 0 0-7.959-7.958h.001z"/><path fill="none" stroke="#fff" style="stroke:var(--color1,#fff)" stroke-miterlimit="10" stroke-width="2.462" d="M16 23.13a7.13 7.13 0 1 0 0-14.26 7.13 7.13 0 1 0 0 14.26z"/><path fill="#fff" style="fill:var(--color1,#fff)" d="M24.658 8.87a1.528 1.528 0 1 0 0-3.056 1.528 1.528 0 0 0 0 3.056z"/></symbol><symbol id="icon-mouse" viewBox="0 0 21 32"><path fill="none" stroke-width="1.067" d="M8.533.533H12.8a8 8 0 0 1 8 8v14.933a8 8 0 0 1-8 8H8.533a8 8 0 0 1-8-8V8.533a8 8 0 0 1 8-8z"/><path d="M12.8 9.6a2.133 2.133 0 1 1-4.266 0 2.133 2.133 0 0 1 4.266 0z"/></symbol><symbol id="icon-telegram" viewBox="0 0 32 32"><path fill="#fff" style="fill:var(--color1,#fff)" d="M32 0 0 18l10.227 3.788L26 7 14.002 23.186l.01.004-.012-.004V32l5.735-6.691L27 28l5-28z"/></symbol><symbol id="icon-smartphone" viewBox="0 0 23 32"><path d="M19.429 0h-16C1.538 0 0 1.346 0 3v26c0 1.654 1.538 3 3.429 3h16c1.891 0 3.429-1.346 3.429-3V3c0-1.654-1.538-3-3.429-3zm-16 2h16c.631 0 1.143.448 1.143 1v21H2.286V3c0-.552.512-1 1.143-1zm16 28h-16c-.631 0-1.143-.448-1.143-1v-3h18.286v3c0 .552-.512 1-1.143 1z"/><path d="M5.38 27.293c.446.391.446 1.024 0 1.415s-1.17.391-1.616 0c-.446-.391-.446-1.024 0-1.415s1.17-.391 1.616 0z"/></symbol><symbol id="icon-vacuum-cleaner" viewBox="0 0 32 32"><path d="M2.706 25.996c1.332 0 2.411 1.005 2.411 2.245s-1.079 2.245-2.411 2.245S.292 29.481.292 28.241s1.082-2.245 2.414-2.245zm21.795-.205.003.008.363-.116c1.05 2.829 1.645 4.027 4.714 4.343h2.758V32h-8.812v-1.974h.3l-1.024-3.68.284-.092-3.769-9.707-2.782-7.662c-.392-.863-.645-1.75-.895-2.621-.534-1.874-1.048-3.672-2.827-4.33a6.488 6.488 0 0 0-1.108-.29 10.804 10.804 0 0 0-1.377-.147c-1.374-.066-2.727.292-3.843 1.098-1.016.732-1.84 1.845-2.306 3.353-.461 1.492-.687 2.732-.479 3.814.2 1.04.821 1.99 2.058 2.961l.153.126c.076.063.155.132.216.166.771.447 1.574.834 2.356 1.213.134.066.268.129.403.195l.553.263c1.998.948 3.227 1.529 3.574 4.203a5.603 5.603 0 0 1-.003 1.498c4.853 1.75 8.151 4.932 9.483 10.181H5.944c.866-1.163 1.142-2.621.603-3.914-.874-2.092-3.556-2.966-5.99-1.948a4.186 4.186 0 0 0-.558.263v-6.372c.487.003.971.011 1.448.024v-1.769c0-.171.139-.311.311-.311h2.658c.171 0 .311.14.311.311v1.911c2.503.195 4.79.566 6.841 1.155a4.3 4.3 0 0 0-.026-.837c-.242-1.869-1.192-2.319-2.735-3.05l-.563-.268c-.134-.066-.268-.129-.403-.195-.808-.39-1.637-.79-2.456-1.266-.179-.103-.308-.213-.432-.318-.032-.026-.063-.053-.111-.089-1.545-1.213-2.335-2.45-2.6-3.853-.261-1.361-.008-2.819.521-4.532.568-1.84 1.592-3.208 2.861-4.124C7.019.378 8.706-.072 10.404.009c.569.026 1.09.082 1.563.166a7.87 7.87 0 0 1 1.363.361c2.492.924 3.108 3.074 3.748 5.319.237.832.479 1.677.816 2.419a.883.883 0 0 1 .037.082l2.787 7.685 3.782 9.752z"/></symbol><symbol id="icon-burger" viewBox="0 0 46 32"><path fill="none" stroke="#d41443" style="stroke:var(--color1,#d41443)" stroke-width="2.286" d="M0 2.286h45.714M0 16h45.714M0 29.714h45.714"/></symbol><symbol id="icon-close" viewBox="0 0 32 32"><path d="M23.734 10.304 22.23 8.8l-5.963 5.962L10.305 8.8l-1.504 1.504 5.962 5.962-5.962 5.963 1.504 1.504 5.962-5.963 5.963 5.963 1.504-1.504-5.963-5.963 5.963-5.962z"/></symbol><symbol id="icon-car-wash" viewBox="0 0 29 32"><path d="m11.565 7.698-.214 1.112-.001.004a.568.568 0 0 1-1.112-.22l.217-1.118a.565.565 0 0 1 1.109.217zm3.484.635-.057 1.128v.001a.566.566 0 0 1-1.131-.03l.001-.029.06-1.13v-.002a.565.565 0 0 1 1.127.056v.006zm-.205 3.836.029-.451v-.006a.565.565 0 0 0-1.127-.056v.002l-.029.521h-3.018v-.034l.214-1.109a.565.565 0 0 0-1.109-.22l-.001.004-.216 1.112a.535.535 0 0 0 0 .251l-.001-.004h-2.31c-1.536 0-2.32 1.331-2.792 2.797l-1.201 3.716-.581-1.089c-2.596-.156-2.893 1.31-.307 2.625-2.88 1.865-2.482 5.128-2.201 8.747l-.002.068.002.071v-.003 2.016a.877.877 0 0 0 .875.872h3.716a.877.877 0 0 0 .875-.872v-.703h17.617v.703a.877.877 0 0 0 .875.872h3.727a.877.877 0 0 0 .875-.872v-1.563c.289-4.719.464-6.625-1.393-8.534l-.461-.703c2.826-1.318 2.589-2.88-.078-2.724l-.521.974-.901-3.615c-.372-1.49-1.258-2.794-2.794-2.794H19.53a.537.537 0 0 0 .015-.306l.001.004-.206-1.057a.57.57 0 0 0-1.112.219v-.003l.208 1.057a.443.443 0 0 0 .025.089l-.001-.003zm-4.253-7.742c.255-2.12 1.661-3.404 3.247-3.729V0h1.258v.635c1.63.188 3.193 1.391 3.688 3.734l.078.057h1.451a.31.31 0 0 1 .31.31v1.005a.31.31 0 0 1-.31.31H8.644a.31.31 0 0 1-.31-.31V4.736a.31.31 0 0 1 .302-.31h1.956zM9.073 7.552l-.402 1.045a.567.567 0 0 1-1.056-.412l.405-1.061a.565.565 0 0 1 1.053.408zm-2.935 7.115a.521.521 0 0 0 .345-.34l.001-.004.076-.198a1.7 1.7 0 0 1 1.203-.498H21.94c1.172 0 1.883.99 2.13 2.13l.904 3.75H4.529l1.125-3.75a5.21 5.21 0 0 1 .498-1.123l-.013.024zm.268-3.31.397-1.061a.566.566 0 0 1 1.055.405l-.404 1.057-.001.004a.566.566 0 0 1-1.055-.405zm14.987-4.326.496 1.036a.565.565 0 1 1-1.014.5l-.496-1.012a.571.571 0 1 1 1.015-.525zm.977 4.571-.493-1.012a.565.565 0 1 1 1.008-.51l.497 1.016-.001-.004a.568.568 0 0 1-1.018.502zm-3.675-4.118.216 1.109V8.59a.565.565 0 0 1-1.109.214l-.216-1.109.001.004a.565.565 0 1 1 1.109-.22zM7.154 24.521l.01.002a1.608 1.608 0 0 1 1.253 1.152c.224.656-.086.943-.799.943l-2.954-.023a1.489 1.489 0 0 1-.738-.206l-.005-.003a1.26 1.26 0 0 1-.443-.494l-.359-.87c-.266-.674-.055-1.003.727-.917l3.31.417zm14.627 0 3.313-.417c.781-.086.99.242.724.917l-.357.87a1.269 1.269 0 0 1-.443.494l-.005.003a1.5 1.5 0 0 1-.741.206h-.001l-2.953.023c-.714 0-1.021-.286-.797-.943a1.598 1.598 0 0 1 1.251-1.152l.01-.001z"/></symbol><symbol id="icon-person-black" viewBox="0 0 32 32"><path d="M16 16a5.333 5.333 0 1 0 0-10.666A5.333 5.333 0 1 0 16 16zm0 2.667c-3.561 0-10.667 1.787-10.667 5.333v1.333c0 .732.599 1.333 1.333 1.333h18.667c.732 0 1.333-.601 1.333-1.333V24c0-3.547-7.108-5.333-10.667-5.333z"/></symbol><symbol id="icon-phone-black" viewBox="0 0 32 32"><path d="m24.882 19.774-3.268-.373a2.552 2.552 0 0 0-2.11.732l-2.368 2.368c-3.669-1.894-6.585-4.81-8.427-8.372l-.051-.108 2.382-2.377a2.552 2.552 0 0 0 .731-2.122l.001.012-.373-3.243a2.578 2.578 0 0 0-2.557-2.276H6.613c-1.454 0-2.663 1.209-2.574 2.661.683 10.987 9.47 19.762 20.444 20.444 1.452.089 2.663-1.12 2.663-2.574v-2.238a2.549 2.549 0 0 0-2.253-2.532l-.012-.001z"/></symbol></defs></svg>