<svg aria-hidden="true" style="width:0;height:0;position:absolute;overflow:hidden" xmlns="http://www.w3.org/2000/svg"><defs><symbol id="icon-marks" viewBox="0 0 40 32"><path fill="#fff" style="fill:var(--color1,#fff)" d="M11.026 18.286c2.051 0 3.675.642 4.872 1.925 1.282 1.203 1.923 2.807 1.923 4.812 0 2.165-.769 3.89-2.308 5.173-1.453 1.203-3.462 1.805-6.026 1.805-2.991 0-5.342-1.083-7.051-3.248C.812 26.588 0 23.5 0 19.49c0-3.609.855-6.937 2.564-9.985C4.273 6.377 6.838 3.249 10.256.122c.085-.08.214-.12.385-.12.256 0 .47.12.641.361s.171.441 0 .602C7.094 4.975 5 9.707 5 15.16c0 2.246.427 3.89 1.282 4.932.769-1.203 2.35-1.805 4.744-1.805zm22.179 0c2.051 0 3.675.642 4.872 1.925C39.359 21.414 40 23.018 40 25.023c0 2.165-.769 3.89-2.308 5.173-1.453 1.203-3.462 1.805-6.026 1.805-2.991 0-5.342-1.083-7.051-3.248-1.624-2.165-2.436-5.253-2.436-9.263 0-3.609.855-6.937 2.564-9.985 1.709-3.128 4.273-6.256 7.692-9.383.085-.08.214-.12.385-.12.256 0 .47.12.641.361s.171.441 0 .602c-4.188 4.01-6.282 8.742-6.282 14.195 0 2.246.427 3.89 1.282 4.932.769-1.203 2.35-1.805 4.744-1.805z"/></symbol><symbol id="icon-instagram" viewBox="0 0 32 32"><path fill="none" stroke="#fff" style="stroke:var(--color1,#fff)" stroke-miterlimit="10" stroke-width="2.462" d="M22.811 1.231H9.189a7.957 7.957 0 0 0-7.958 7.958v13.622a7.958 7.958 0 0 0 7.959 7.958h13.621a7.96 7.96 0 0 0 7.959-7.959V9.188a7.958 7.958 0 0 0-7.959-7.958h.001z"/><path fill="none" stroke="#fff" style="stroke:var(--color1,#fff)" stroke-miterlimit="10" stroke-width="2.462" d="M16 23.13a7.13 7.13 0 1 0 0-14.26 7.13 7.13 0 1 0 0 14.26z"/><path fill="#fff" style="fill:var(--color1,#fff)" d="M24.658 8.87a1.528 1.528 0 1 0 0-3.056 1.528 1.528 0 0 0 0 3.056z"/></symbol><symbol id="icon-mouse" viewBox="0 0 21 32"><path fill="none" stroke-width="1.067" d="M8.533.533H12.8a8 8 0 0 1 8 8v14.933a8 8 0 0 1-8 8H8.533a8 8 0 0 1-8-8V8.533a8 8 0 0 1 8-8z"/><path d="M12.8 9.6a2.133 2.133 0 1 1-4.266 0 2.133 2.133 0 0 1 4.266 0z"/></symbol><symbol id="icon-telegram" viewBox="0 0 32 32"><path fill="#fff" style="fill:var(--color1,#fff)" d="M32 0 0 18l10.227 3.788L26 7 14.002 23.186l.01.004-.012-.004V32l5.735-6.691L27 28l5-28z"/></symbol><symbol id="icon-smartphone" viewBox="0 0 23 32"><path fill="#757575" style="fill:var(--color2,#757575)" d="M19.429 0h-16C1.538 0 0 1.346 0 3v26c0 1.654 1.538 3 3.429 3h16c1.891 0 3.429-1.346 3.429-3V3c0-1.654-1.538-3-3.429-3zm-16 2h16c.631 0 1.143.448 1.143 1v21H2.286V3c0-.552.512-1 1.143-1zm16 28h-16c-.631 0-1.143-.448-1.143-1v-3h18.286v3c0 .552-.512 1-1.143 1z"/><path fill="#757575" style="fill:var(--color2,#757575)" d="M5.38 27.293c.446.391.446 1.024 0 1.415s-1.17.391-1.616 0c-.446-.391-.446-1.024 0-1.415s1.17-.391 1.616 0z"/></symbol><symbol id="icon-vacuum-cleaner" viewBox="0 0 32 32"><path d="M2.706 25.996c1.332 0 2.411 1.005 2.411 2.245s-1.079 2.245-2.411 2.245S.292 29.481.292 28.241s1.082-2.245 2.414-2.245zm21.795-.205.003.008.363-.116c1.05 2.829 1.645 4.027 4.714 4.343h2.758V32h-8.812v-1.974h.3l-1.024-3.68.284-.092-3.769-9.707-2.782-7.662c-.392-.863-.645-1.75-.895-2.621-.534-1.874-1.048-3.672-2.827-4.33a6.488 6.488 0 0 0-1.108-.29 10.804 10.804 0 0 0-1.377-.147c-1.374-.066-2.727.292-3.843 1.098-1.016.732-1.84 1.845-2.306 3.353-.461 1.492-.687 2.732-.479 3.814.2 1.04.821 1.99 2.058 2.961l.153.126c.076.063.155.132.216.166.771.447 1.574.834 2.356 1.213.134.066.268.129.403.195l.553.263c1.998.948 3.227 1.529 3.574 4.203a5.603 5.603 0 0 1-.003 1.498c4.853 1.75 8.151 4.932 9.483 10.181H5.944c.866-1.163 1.142-2.621.603-3.914-.874-2.092-3.556-2.966-5.99-1.948a4.186 4.186 0 0 0-.558.263v-6.372c.487.003.971.011 1.448.024v-1.769c0-.171.139-.311.311-.311h2.658c.171 0 .311.14.311.311v1.911c2.503.195 4.79.566 6.841 1.155a4.3 4.3 0 0 0-.026-.837c-.242-1.869-1.192-2.319-2.735-3.05l-.563-.268c-.134-.066-.268-.129-.403-.195-.808-.39-1.637-.79-2.456-1.266-.179-.103-.308-.213-.432-.318-.032-.026-.063-.053-.111-.089-1.545-1.213-2.335-2.45-2.6-3.853-.261-1.361-.008-2.819.521-4.532.568-1.84 1.592-3.208 2.861-4.124C7.019.378 8.706-.072 10.404.009c.569.026 1.09.082 1.563.166a7.87 7.87 0 0 1 1.363.361c2.492.924 3.108 3.074 3.748 5.319.237.832.479 1.677.816 2.419a.883.883 0 0 1 .037.082l2.787 7.685 3.782 9.752z"/></symbol><symbol id="icon-burger" viewBox="0 0 46 32"><path fill="none" stroke="#d41443" style="stroke:var(--color1,#d41443)" stroke-width="2.286" d="M0 2.286h45.714M0 16h45.714M0 29.714h45.714"/></symbol><symbol id="icon-close" viewBox="0 0 32 32"><path d="M23.734 10.304 22.23 8.8l-5.963 5.962L10.305 8.8l-1.504 1.504 5.962 5.962-5.962 5.963 1.504 1.504 5.962-5.963 5.963 5.963 1.504-1.504-5.963-5.963 5.963-5.962z"/></symbol></defs></svg>