<svg aria-hidden="true" style="position: absolute; width: 0; height: 0; overflow: hidden;" version="1.1" xmlns="http://www.w3.org/2000/svg" xmlns:xlink="http://www.w3.org/1999/xlink">
<defs>
<symbol id="icon-marks" viewBox="0 0 40 32">
<path fill="#fff" style="fill: var(--color1, #fff)" d="M11.026 18.286c2.051 0 3.675 0.642 4.872 1.925 1.282 1.203 1.923 2.807 1.923 4.812 0 2.165-0.769 3.89-2.308 5.173-1.453 1.203-3.462 1.805-6.026 1.805-2.991 0-5.342-1.083-7.051-3.248-1.624-2.165-2.436-5.253-2.436-9.263 0-3.609 0.855-6.937 2.564-9.985 1.709-3.128 4.274-6.256 7.692-9.383 0.085-0.080 0.214-0.12 0.385-0.12 0.256 0 0.47 0.12 0.641 0.361s0.171 0.441 0 0.602c-4.188 4.010-6.282 8.742-6.282 14.195 0 2.246 0.427 3.89 1.282 4.932 0.769-1.203 2.35-1.805 4.744-1.805zM33.205 18.286c2.051 0 3.675 0.642 4.872 1.925 1.282 1.203 1.923 2.807 1.923 4.812 0 2.165-0.769 3.89-2.308 5.173-1.453 1.203-3.462 1.805-6.026 1.805-2.991 0-5.342-1.083-7.051-3.248-1.624-2.165-2.436-5.253-2.436-9.263 0-3.609 0.855-6.937 2.564-9.985 1.709-3.128 4.273-6.256 7.692-9.383 0.085-0.080 0.214-0.12 0.385-0.12 0.256 0 0.47 0.12 0.641 0.361s0.171 0.441 0 0.602c-4.188 4.010-6.282 8.742-6.282 14.195 0 2.246 0.427 3.89 1.282 4.932 0.769-1.203 2.35-1.805 4.744-1.805z"></path>
</symbol>
<symbol id="icon-instagram" viewBox="0 0 32 32">
<path fill="none" stroke="#fff" style="stroke: var(--color1, #fff)" stroke-linejoin="miter" stroke-linecap="butt" stroke-miterlimit="10" stroke-width="2.4615" d="M22.811 1.231h-13.622c-4.396 0-7.958 3.563-7.958 7.958v13.622c0 4.395 3.563 7.958 7.959 7.958h13.621c4.395 0 7.959-3.563 7.959-7.959v-13.622c0-4.396-3.563-7.958-7.959-7.958h0.001z"></path>
<path fill="none" stroke="#fff" style="stroke: var(--color1, #fff)" stroke-linejoin="miter" stroke-linecap="butt" stroke-miterlimit="10" stroke-width="2.4615" d="M16 23.13c3.938 0 7.13-3.192 7.13-7.13s-3.192-7.13-7.13-7.13c-3.938 0-7.13 3.192-7.13 7.13s3.192 7.13 7.13 7.13z"></path>
<path fill="#fff" style="fill: var(--color1, #fff)" d="M24.658 8.87c0.844 0 1.528-0.684 1.528-1.528s-0.684-1.528-1.528-1.528c-0.844 0-1.528 0.684-1.528 1.528s0.684 1.528 1.528 1.528z"></path>
</symbol>
<symbol id="icon-mouse" viewBox="0 0 21 32">
<path fill="none"  stroke-linejoin="miter" stroke-linecap="butt" stroke-miterlimit="4" stroke-width="1.0667" d="M8.533 0.533h4.267c4.418 0 8 3.582 8 8v14.933c0 4.418-3.582 8-8 8h-4.267c-4.418 0-8-3.582-8-8v-14.933c0-4.418 3.582-8 8-8z"></path>
<path  d="M12.8 9.6c0 1.178-0.955 2.133-2.133 2.133s-2.133-0.955-2.133-2.133c0-1.178 0.955-2.133 2.133-2.133s2.133 0.955 2.133 2.133z"></path>
</symbol>
<symbol id="icon-telegram" viewBox="0 0 32 32">
<path fill="#fff" style="fill: var(--color1, #fff)" d="M32 0l-32 18 10.227 3.788 15.773-14.788-11.998 16.186 0.010 0.004-0.012-0.004v8.814l5.735-6.691 7.265 2.691 5-28z"></path>
</symbol>
<symbol id="icon-smartphone" viewBox="0 0 23 32">
<path fill="#757575" style="fill: var(--color2, #757575)" d="M19.429 0h-16c-1.891 0-3.429 1.346-3.429 3v26c0 1.654 1.538 3 3.429 3h16c1.891 0 3.429-1.346 3.429-3v-26c0-1.654-1.538-3-3.429-3zM3.429 2h16c0.631 0 1.143 0.448 1.143 1v21h-18.286v-21c0-0.552 0.512-1 1.143-1zM19.429 30h-16c-0.631 0-1.143-0.448-1.143-1v-3h18.286v3c0 0.552-0.512 1-1.143 1z"></path>
<path fill="#757575" style="fill: var(--color2, #757575)" d="M5.38 27.293c0.446 0.391 0.446 1.024 0 1.415s-1.17 0.391-1.616 0c-0.446-0.391-0.446-1.024 0-1.415s1.17-0.391 1.616 0z"></path>
</symbol>
<symbol id="icon-vacuum-cleaner" viewBox="0 0 32 32">
<path d="M2.706 25.996c1.332 0 2.411 1.005 2.411 2.245s-1.079 2.245-2.411 2.245c-1.332 0-2.414-1.005-2.414-2.245s1.082-2.245 2.414-2.245v0zM24.501 25.791l0.003 0.008 0.363-0.116c1.050 2.829 1.645 4.027 4.714 4.343h2.758v1.974h-8.812v-1.974h0.3l-1.024-3.68 0.284-0.092-3.769-9.707-2.782-7.662c-0.392-0.863-0.645-1.75-0.895-2.621-0.534-1.874-1.048-3.672-2.827-4.33-0.329-0.121-0.7-0.218-1.108-0.29-0.429-0.076-0.887-0.124-1.377-0.147-1.374-0.066-2.727 0.292-3.843 1.098-1.016 0.732-1.84 1.845-2.306 3.353-0.461 1.492-0.687 2.732-0.479 3.814 0.2 1.040 0.821 1.99 2.058 2.961 0.039 0.032 0.095 0.079 0.153 0.126 0.076 0.063 0.155 0.132 0.216 0.166 0.771 0.447 1.574 0.834 2.356 1.213 0.134 0.066 0.268 0.129 0.403 0.195 0.182 0.087 0.371 0.176 0.553 0.263 1.998 0.948 3.227 1.529 3.574 4.203 0.068 0.516 0.063 1.016-0.003 1.498 4.853 1.75 8.151 4.932 9.483 10.181h-16.55c0.866-1.163 1.142-2.621 0.603-3.914-0.874-2.092-3.556-2.966-5.99-1.948-0.195 0.074-0.379 0.163-0.558 0.263v-6.372c0.487 0.003 0.971 0.011 1.448 0.024v-1.769c0-0.171 0.139-0.311 0.311-0.311h2.658c0.171 0 0.311 0.14 0.311 0.311v1.911c2.503 0.195 4.79 0.566 6.841 1.155 0.018-0.271 0.011-0.55-0.026-0.837-0.242-1.869-1.192-2.319-2.735-3.050-0.176-0.084-0.358-0.171-0.563-0.268-0.134-0.066-0.268-0.129-0.403-0.195-0.808-0.39-1.637-0.79-2.456-1.266-0.179-0.103-0.308-0.213-0.432-0.318-0.032-0.026-0.063-0.053-0.111-0.089-1.545-1.213-2.335-2.45-2.6-3.853-0.261-1.361-0.008-2.819 0.521-4.532 0.568-1.84 1.592-3.208 2.861-4.124 1.395-1.008 3.082-1.458 4.78-1.377 0.569 0.026 1.090 0.082 1.563 0.166 0.495 0.087 0.948 0.208 1.363 0.361 2.492 0.924 3.108 3.074 3.748 5.319 0.237 0.832 0.479 1.677 0.816 2.419 0.013 0.026 0.026 0.053 0.037 0.082l2.787 7.685 3.782 9.752z"></path>
</symbol>
<symbol id="icon-burger" viewBox="0 0 46 32">
<path fill="none" stroke="#d41443" style="stroke: var(--color1, #d41443)" stroke-linejoin="miter" stroke-linecap="butt" stroke-miterlimit="4" stroke-width="2.2857" d="M0 2.286h45.714M0 16h45.714M0 29.714h45.714"></path>
</symbol>
<symbol id="icon-close" viewBox="0 0 32 32">
<path d="M23.734 10.304l-1.504-1.504-5.963 5.962-5.962-5.962-1.504 1.504 5.962 5.962-5.962 5.963 1.504 1.504 5.962-5.963 5.963 5.963 1.504-1.504-5.963-5.963 5.963-5.962z"></path>
</symbol>
<symbol id="icon-car-wash" viewBox="0 0 29 32">
<path d="M11.565 7.698l-0.214 1.112-0.001 0.004c-0.066 0.241-0.286 0.418-0.548 0.418-0.314 0-0.568-0.254-0.568-0.568 0-0.025 0.002-0.049 0.004-0.070l0.217-1.118c0.057-0.251 0.282-0.439 0.551-0.439 0.312 0 0.565 0.253 0.565 0.565 0 0.032-0.003 0.064-0.007 0.091zM15.049 8.333l-0.057 1.128-0 0.001c-0.016 0.299-0.263 0.536-0.565 0.536-0.313 0-0.566-0.253-0.566-0.566 0-0.010 0-0.020 0.001-0.029l0.060-1.13 0-0.002c0.028-0.286 0.269-0.509 0.562-0.509 0.312 0 0.565 0.253 0.565 0.565 0 0.002 0 0.004-0 0.006zM14.844 12.169l0.029-0.451c0-0.002 0-0.004 0-0.006 0-0.312-0.253-0.565-0.565-0.565-0.293 0-0.534 0.223-0.562 0.509l-0 0.002-0.029 0.521h-3.018v-0.034l0.214-1.109c0.007-0.033 0.010-0.070 0.010-0.108 0-0.312-0.253-0.565-0.565-0.565-0.274 0-0.502 0.195-0.554 0.453l-0.001 0.004-0.216 1.112c-0.009 0.037-0.014 0.080-0.014 0.124s0.005 0.087 0.014 0.127l-0.001-0.004h-2.31c-1.536 0-2.32 1.331-2.792 2.797l-1.201 3.716-0.581-1.089c-2.596-0.156-2.893 1.31-0.307 2.625v0c-2.88 1.865-2.482 5.128-2.201 8.747-0.001 0.020-0.002 0.044-0.002 0.068s0.001 0.047 0.002 0.071l-0-0.003v2.016c0.003 0.482 0.393 0.871 0.875 0.872h3.716c0.482-0.001 0.872-0.391 0.875-0.872v-0.703h17.617v0.703c0.003 0.482 0.393 0.871 0.875 0.872h3.727c0.482-0.001 0.872-0.391 0.875-0.872v-1.563c0.289-4.719 0.464-6.625-1.393-8.534l-0.461-0.703c2.826-1.318 2.589-2.88-0.078-2.724l-0.521 0.974-0.901-3.615c-0.372-1.49-1.258-2.794-2.794-2.794h-3.076c0.019-0.053 0.030-0.115 0.030-0.179 0-0.044-0.005-0.086-0.015-0.127l0.001 0.004-0.206-1.057c-0.067-0.245-0.287-0.422-0.549-0.422-0.314 0-0.568 0.254-0.568 0.568 0 0.025 0.002 0.049 0.005 0.073l-0-0.003 0.208 1.057c0.006 0.033 0.014 0.062 0.025 0.089l-0.001-0.003zM10.591 4.427c0.255-2.12 1.661-3.404 3.247-3.729v-0.698h1.258v0.635c1.63 0.188 3.193 1.391 3.688 3.734l0.078 0.057h1.451c0 0 0 0 0 0 0.171 0 0.31 0.139 0.31 0.31 0 0.003-0 0.005-0 0.008v0.997c0 0.171-0.139 0.31-0.31 0.31h-11.669c-0.171 0-0.31-0.139-0.31-0.31v-0.997c-0-0.003-0-0.006-0-0.008 0-0.168 0.134-0.306 0.302-0.31h1.956zM9.073 7.552l-0.402 1.045c-0.083 0.21-0.288 0.359-0.527 0.359-0.313 0-0.567-0.254-0.567-0.567 0-0.074 0.014-0.144 0.038-0.204l0.405-1.061c0.087-0.199 0.286-0.338 0.518-0.338 0.312 0 0.565 0.253 0.565 0.565 0 0.065-0.011 0.127-0.030 0.181zM6.138 14.667c0.166-0.051 0.294-0.179 0.345-0.34l0.001-0.004 0.076-0.198c0.308-0.307 0.733-0.498 1.203-0.498 0.007 0 0.015 0 0.022 0h14.155c1.172 0 1.883 0.99 2.13 2.13l0.904 3.75h-20.445l1.125-3.75c0.132-0.42 0.296-0.784 0.498-1.123l-0.013 0.024zM6.406 11.357l0.397-1.061c0.082-0.211 0.287-0.361 0.527-0.361 0.312 0 0.565 0.253 0.565 0.565 0 0.072-0.013 0.141-0.037 0.201l-0.404 1.057-0.001 0.004c-0.082 0.211-0.287 0.361-0.527 0.361-0.312 0-0.565-0.253-0.565-0.565 0-0.072 0.013-0.141 0.037-0.201zM21.393 7.031l0.496 1.036c0.038 0.076 0.059 0.161 0.059 0.252 0 0.312-0.253 0.565-0.565 0.565-0.222 0-0.414-0.128-0.508-0.317l-0.496-1.012c-0.041-0.079-0.064-0.168-0.064-0.264 0-0.315 0.256-0.571 0.571-0.571 0.22 0 0.411 0.125 0.508 0.31zM22.37 11.602l-0.493-1.012c-0.039-0.077-0.062-0.165-0.062-0.257 0-0.312 0.253-0.565 0.565-0.565 0.22 0 0.41 0.125 0.505 0.312l0.497 1.016-0.001-0.004c0.029 0.068 0.044 0.142 0.044 0.221 0 0.314-0.254 0.568-0.568 0.568-0.21 0-0.394-0.114-0.494-0.287zM18.695 7.484l0.216 1.109-0-0.003c0.004 0.028 0.006 0.057 0.006 0.086 0 0.312-0.253 0.565-0.565 0.565-0.267 0-0.49-0.185-0.55-0.437l-0.216-1.109 0.001 0.004c-0.007-0.036-0.011-0.073-0.011-0.112 0-0.312 0.253-0.565 0.565-0.565 0.274 0 0.502 0.195 0.555 0.457zM7.154 24.521l0.010 0.002c0.602 0.111 1.087 0.559 1.253 1.152 0.224 0.656-0.086 0.943-0.799 0.943l-2.954-0.023c-0.272-0.004-0.526-0.080-0.738-0.206l-0.005-0.003c-0.186-0.12-0.339-0.288-0.443-0.494l-0.359-0.87c-0.266-0.674-0.055-1.003 0.727-0.917l3.31 0.417zM21.781 24.521l3.313-0.417c0.781-0.086 0.99 0.242 0.724 0.917l-0.357 0.87c-0.105 0.206-0.257 0.374-0.443 0.494l-0.005 0.003c-0.213 0.126-0.468 0.202-0.741 0.206h-0.001l-2.953 0.023c-0.714 0-1.021-0.286-0.797-0.943 0.164-0.594 0.648-1.042 1.251-1.152l0.010-0.001z"></path>
</symbol>
</defs>
</svg>
