<svg aria-hidden="true" style="position: absolute; width: 0; height: 0; overflow: hidden;" version="1.1" xmlns="http://www.w3.org/2000/svg" xmlns:xlink="http://www.w3.org/1999/xlink">
<defs>
<symbol id="icon-marks" viewBox="0 0 40 32">
<path fill="#fff" style="fill: var(--color1, #fff)" d="M11.026 18.286c2.051 0 3.675 0.642 4.872 1.925 1.282 1.203 1.923 2.807 1.923 4.812 0 2.165-0.769 3.89-2.308 5.173-1.453 1.203-3.462 1.805-6.026 1.805-2.991 0-5.342-1.083-7.051-3.248-1.624-2.165-2.436-5.253-2.436-9.263 0-3.609 0.855-6.937 2.564-9.985 1.709-3.128 4.274-6.256 7.692-9.383 0.085-0.080 0.214-0.12 0.385-0.12 0.256 0 0.47 0.12 0.641 0.361s0.171 0.441 0 0.602c-4.188 4.010-6.282 8.742-6.282 14.195 0 2.246 0.427 3.89 1.282 4.932 0.769-1.203 2.35-1.805 4.744-1.805zM33.205 18.286c2.051 0 3.675 0.642 4.872 1.925 1.282 1.203 1.923 2.807 1.923 4.812 0 2.165-0.769 3.89-2.308 5.173-1.453 1.203-3.462 1.805-6.026 1.805-2.991 0-5.342-1.083-7.051-3.248-1.624-2.165-2.436-5.253-2.436-9.263 0-3.609 0.855-6.937 2.564-9.985 1.709-3.128 4.273-6.256 7.692-9.383 0.085-0.080 0.214-0.12 0.385-0.12 0.256 0 0.47 0.12 0.641 0.361s0.171 0.441 0 0.602c-4.188 4.010-6.282 8.742-6.282 14.195 0 2.246 0.427 3.89 1.282 4.932 0.769-1.203 2.35-1.805 4.744-1.805z"></path>
</symbol>
<symbol id="icon-instagram" viewBox="0 0 32 32">
<path fill="none" stroke="#fff" style="stroke: var(--color1, #fff)" stroke-linejoin="miter" stroke-linecap="butt" stroke-miterlimit="10" stroke-width="2.4615" d="M22.811 1.231h-13.622c-4.396 0-7.958 3.563-7.958 7.958v13.622c0 4.395 3.563 7.958 7.959 7.958h13.621c4.395 0 7.959-3.563 7.959-7.959v-13.622c0-4.396-3.563-7.958-7.959-7.958h0.001z"></path>
<path fill="none" stroke="#fff" style="stroke: var(--color1, #fff)" stroke-linejoin="miter" stroke-linecap="butt" stroke-miterlimit="10" stroke-width="2.4615" d="M16 23.13c3.938 0 7.13-3.192 7.13-7.13s-3.192-7.13-7.13-7.13c-3.938 0-7.13 3.192-7.13 7.13s3.192 7.13 7.13 7.13z"></path>
<path fill="#fff" style="fill: var(--color1, #fff)" d="M24.658 8.87c0.844 0 1.528-0.684 1.528-1.528s-0.684-1.528-1.528-1.528c-0.844 0-1.528 0.684-1.528 1.528s0.684 1.528 1.528 1.528z"></path>
</symbol>
<symbol id="icon-mouse" viewBox="0 0 21 32">
<path fill="none"  stroke-linejoin="miter" stroke-linecap="butt" stroke-miterlimit="4" stroke-width="1.0667" d="M8.533 0.533h4.267c4.418 0 8 3.582 8 8v14.933c0 4.418-3.582 8-8 8h-4.267c-4.418 0-8-3.582-8-8v-14.933c0-4.418 3.582-8 8-8z"></path>
<path  d="M12.8 9.6c0 1.178-0.955 2.133-2.133 2.133s-2.133-0.955-2.133-2.133c0-1.178 0.955-2.133 2.133-2.133s2.133 0.955 2.133 2.133z"></path>
</symbol>
<symbol id="icon-telegram" viewBox="0 0 32 32">
<path fill="#fff" style="fill: var(--color1, #fff)" d="M32 0l-32 18 10.227 3.788 15.773-14.788-11.998 16.186 0.010 0.004-0.012-0.004v8.814l5.735-6.691 7.265 2.691 5-28z"></path>
</symbol>
<symbol id="icon-smartphone" viewBox="0 0 23 32">
<path fill="#757575" style="fill: var(--color2, #757575)" d="M19.429 0h-16c-1.891 0-3.429 1.346-3.429 3v26c0 1.654 1.538 3 3.429 3h16c1.891 0 3.429-1.346 3.429-3v-26c0-1.654-1.538-3-3.429-3zM3.429 2h16c0.631 0 1.143 0.448 1.143 1v21h-18.286v-21c0-0.552 0.512-1 1.143-1zM19.429 30h-16c-0.631 0-1.143-0.448-1.143-1v-3h18.286v3c0 0.552-0.512 1-1.143 1z"></path>
<path fill="#757575" style="fill: var(--color2, #757575)" d="M5.38 27.293c0.446 0.391 0.446 1.024 0 1.415s-1.17 0.391-1.616 0c-0.446-0.391-0.446-1.024 0-1.415s1.17-0.391 1.616 0z"></path>
</symbol>
<symbol id="icon-vacuum-cleaner" viewBox="0 0 32 32">
<path d="M2.706 25.996c1.332 0 2.411 1.005 2.411 2.245s-1.079 2.245-2.411 2.245c-1.332 0-2.414-1.005-2.414-2.245s1.082-2.245 2.414-2.245v0zM24.501 25.791l0.003 0.008 0.363-0.116c1.050 2.829 1.645 4.027 4.714 4.343h2.758v1.974h-8.812v-1.974h0.3l-1.024-3.68 0.284-0.092-3.769-9.707-2.782-7.662c-0.392-0.863-0.645-1.75-0.895-2.621-0.534-1.874-1.048-3.672-2.827-4.33-0.329-0.121-0.7-0.218-1.108-0.29-0.429-0.076-0.887-0.124-1.377-0.147-1.374-0.066-2.727 0.292-3.843 1.098-1.016 0.732-1.84 1.845-2.306 3.353-0.461 1.492-0.687 2.732-0.479 3.814 0.2 1.040 0.821 1.99 2.058 2.961 0.039 0.032 0.095 0.079 0.153 0.126 0.076 0.063 0.155 0.132 0.216 0.166 0.771 0.447 1.574 0.834 2.356 1.213 0.134 0.066 0.268 0.129 0.403 0.195 0.182 0.087 0.371 0.176 0.553 0.263 1.998 0.948 3.227 1.529 3.574 4.203 0.068 0.516 0.063 1.016-0.003 1.498 4.853 1.75 8.151 4.932 9.483 10.181h-16.55c0.866-1.163 1.142-2.621 0.603-3.914-0.874-2.092-3.556-2.966-5.99-1.948-0.195 0.074-0.379 0.163-0.558 0.263v-6.372c0.487 0.003 0.971 0.011 1.448 0.024v-1.769c0-0.171 0.139-0.311 0.311-0.311h2.658c0.171 0 0.311 0.14 0.311 0.311v1.911c2.503 0.195 4.79 0.566 6.841 1.155 0.018-0.271 0.011-0.55-0.026-0.837-0.242-1.869-1.192-2.319-2.735-3.050-0.176-0.084-0.358-0.171-0.563-0.268-0.134-0.066-0.268-0.129-0.403-0.195-0.808-0.39-1.637-0.79-2.456-1.266-0.179-0.103-0.308-0.213-0.432-0.318-0.032-0.026-0.063-0.053-0.111-0.089-1.545-1.213-2.335-2.45-2.6-3.853-0.261-1.361-0.008-2.819 0.521-4.532 0.568-1.84 1.592-3.208 2.861-4.124 1.395-1.008 3.082-1.458 4.78-1.377 0.569 0.026 1.090 0.082 1.563 0.166 0.495 0.087 0.948 0.208 1.363 0.361 2.492 0.924 3.108 3.074 3.748 5.319 0.237 0.832 0.479 1.677 0.816 2.419 0.013 0.026 0.026 0.053 0.037 0.082l2.787 7.685 3.782 9.752z"></path>
</symbol>
<symbol id="icon-burger" viewBox="0 0 46 32">
<path fill="none" stroke="#d41443" style="stroke: var(--color1, #d41443)" stroke-linejoin="miter" stroke-linecap="butt" stroke-miterlimit="4" stroke-width="2.2857" d="M0 2.286h45.714M0 16h45.714M0 29.714h45.714"></path>
</symbol>
<symbol id="icon-close" viewBox="0 0 32 32">
<path d="M23.734 10.304l-1.504-1.504-5.963 5.962-5.962-5.962-1.504 1.504 5.962 5.962-5.962 5.963 1.504 1.504 5.962-5.963 5.963 5.963 1.504-1.504-5.963-5.963 5.963-5.962z"></path>
</symbol>
</defs>
</svg>
